<svg xmlns="http://www.w3.org/2000/svg" width="225" height="314" viewBox="0 0 210.93738 294.37536"><path d="M0 0h210.938v294.375H0z" fill="#fff"/><g transform="matrix(.94494 0 0 .94408 -2342 -368.535)"><rect width="197.052" height="286.644" x="2491.545" y="402.947" ry="0" fill="none" stroke="#131f67" stroke-width="4.952" stroke-linecap="round"/><path d="M2498.071 408.721h184v275.094h-184z" fill="#131f67"/><g color="#000"><path transform="matrix(.80776 0 0 1 -221.155 -1686.177)" overflow="visible" white-space="normal" font-weight="400" style="line-height:normal;text-indent:0;text-align:start;text-decoration-line:none;text-decoration-style:solid;text-decoration-color:#000;text-transform:none;block-progression:tb;isolation:auto;mix-blend-mode:normal" d="M3400.66 2120.948v169.88l10.527 20 10.527-20v-169.88l-3.458-3.69h-13.612z" font-family="sans-serif" opacity=".98" fill="#fff" fill-rule="evenodd" stroke="#fff" stroke-width="3.338"/><path d="M1203.501-4092.049h30.35v30.35h-30.35z" overflow="visible" style="marker:none" transform="scale(.73585 -1.08172) rotate(45 -2031.903 416.612)" fill="none" stroke="#fff" stroke-width="2.242"/><path d="M164.972-3982.419h40.814v40.814h-40.814z" overflow="visible" transform="scale(.93957 -.80438) rotate(45 -2648.09 763.998)" style="marker:none" fill="none" stroke="#131f67" stroke-width="2.301"/><path d="M1202.448-4093.101h30.35v30.35h-30.35z" overflow="visible" transform="scale(.73585 -1.08172) rotate(45 -2031.903 416.612)" style="marker:none" fill="#fff" stroke="#131f67" stroke-width="2.242"/><path d="M163.557-3983.835h40.814v40.814h-40.814z" overflow="visible" style="marker:none" transform="scale(.93957 -.80438) rotate(45 -2648.09 763.998)" fill="#fff" stroke="#131f67" stroke-width="2.301"/><path transform="matrix(.80776 0 0 1 -221.155 -1686.177)" overflow="visible" d="M3404.394 2211.823l1.41-1.75 1.411 1.75v108.365h-2.821zm10.766 0l1.41-1.75 1.41 1.75v108.365h-2.82z" style="marker:none" opacity=".99" fill="#131f67" stroke="#131f67" stroke-width="2.225"/></g><g color="#000"><path transform="matrix(.80776 0 0 -1 -109.54 2778.714)" overflow="visible" white-space="normal" font-weight="400" style="line-height:normal;text-indent:0;text-align:start;text-decoration-line:none;text-decoration-style:solid;text-decoration-color:#000;text-transform:none;block-progression:tb;isolation:auto;mix-blend-mode:normal" d="M3400.66 2120.948v169.88l10.527 20 10.527-20v-169.88l-3.458-3.69h-13.612z" font-family="sans-serif" opacity=".98" fill="#fff" fill-rule="evenodd" stroke="#fff" stroke-width="3.338"/><path d="M1203.501-4092.049h30.35v30.35h-30.35z" overflow="visible" style="marker:none" transform="scale(.73584 1.08173) rotate(45 -3175.21 1104.691)" fill="none" stroke="#fff" stroke-width="2.242"/><path d="M164.972-3982.419h40.814v40.814h-40.814z" overflow="visible" transform="scale(.93957 .80438) rotate(45 -4228.236 1586.515)" style="marker:none" fill="none" stroke="#131f67" stroke-width="2.301"/><path d="M1202.448-4093.101h30.35v30.35h-30.35z" overflow="visible" transform="scale(.73584 1.08173) rotate(45 -3175.21 1104.691)" style="marker:none" fill="#fff" stroke="#131f67" stroke-width="2.242"/><path d="M163.557-3983.835h40.814v40.814h-40.814z" overflow="visible" style="marker:none" transform="scale(.93957 .80438) rotate(45 -4228.236 1586.515)" fill="#fff" stroke="#131f67" stroke-width="2.301"/><path transform="matrix(.80776 0 0 -1 -109.54 2778.714)" overflow="visible" d="M3404.394 2211.823l1.41-1.75 1.411 1.75v108.365h-2.821zm10.766 0l1.41-1.75 1.41 1.75v108.365h-2.82z" style="marker:none" opacity=".99" fill="#131f67" stroke="#131f67" stroke-width="2.225"/></g><g color="#000"><g transform="translate(538.153 114.397) scale(.79222)"><rect overflow="visible" transform="rotate(-30)" ry="13.418" rx="13.418" y="1762.208" x="1934.755" height="9.86" width="71.487" style="marker:none" fill="#fff"/><circle overflow="visible" r="20.511" cy="545.137" cx="2590.071" style="marker:none" fill="#fff"/><rect overflow="visible" transform="rotate(-120)" ry="13.418" rx="13.418" y="1965.569" x="-1802.882" height="9.86" width="71.487" style="marker:none" fill="#fff"/><circle overflow="visible" style="marker:none" cx="2590.071" cy="545.137" r="13.424" fill="#131f67"/></g><path d="M2583.793 544.586l7.96-4.596 4.596 7.96-7.96 4.597z" overflow="visible" style="marker:none" fill="#fff"/></g><rect ry="0" y="402.947" x="2491.545" height="286.644" width="197.052" fill="none" stroke="#131f67" stroke-width="4.952" stroke-linecap="round"/><path d="M2498.071 408.721h184v275.094h-184z" fill="#131f67"/><g color="#000"><path transform="matrix(.80776 0 0 1 -221.155 -1686.177)" overflow="visible" white-space="normal" font-weight="400" d="M3400.66 2120.948v169.88l10.527 20 10.527-20v-169.88l-3.458-3.69h-13.612z" style="line-height:normal;text-indent:0;text-align:start;text-decoration-line:none;text-decoration-style:solid;text-decoration-color:#000;text-transform:none;block-progression:tb;isolation:auto;mix-blend-mode:normal" font-family="sans-serif" opacity=".98" fill="#fff" fill-rule="evenodd" stroke="#fff" stroke-width="3.338"/><path d="M1203.501-4092.049h30.35v30.35h-30.35z" overflow="visible" transform="scale(.73585 -1.08172) rotate(45 -2031.903 416.612)" style="marker:none" fill="none" stroke="#fff" stroke-width="2.242"/><path d="M164.972-3982.419h40.814v40.814h-40.814z" overflow="visible" style="marker:none" transform="scale(.93957 -.80438) rotate(45 -2648.09 763.998)" fill="none" stroke="#131f67" stroke-width="2.301"/><path d="M1202.448-4093.101h30.35v30.35h-30.35z" overflow="visible" style="marker:none" transform="scale(.73585 -1.08172) rotate(45 -2031.903 416.612)" fill="#fff" stroke="#131f67" stroke-width="2.242"/><path d="M163.557-3983.835h40.814v40.814h-40.814z" overflow="visible" transform="scale(.93957 -.80438) rotate(45 -2648.09 763.998)" style="marker:none" fill="#fff" stroke="#131f67" stroke-width="2.301"/><path transform="matrix(.80776 0 0 1 -221.155 -1686.177)" overflow="visible" style="marker:none" d="M3404.394 2211.823l1.41-1.75 1.411 1.75v108.365h-2.821zm10.766 0l1.41-1.75 1.41 1.75v108.365h-2.82z" opacity=".99" fill="#131f67" stroke="#131f67" stroke-width="2.225"/></g><g color="#000"><path transform="matrix(.80776 0 0 -1 -109.54 2778.714)" overflow="visible" white-space="normal" font-weight="400" d="M3400.66 2120.948v169.88l10.527 20 10.527-20v-169.88l-3.458-3.69h-13.612z" style="line-height:normal;text-indent:0;text-align:start;text-decoration-line:none;text-decoration-style:solid;text-decoration-color:#000;text-transform:none;block-progression:tb;isolation:auto;mix-blend-mode:normal" font-family="sans-serif" opacity=".98" fill="#fff" fill-rule="evenodd" stroke="#fff" stroke-width="3.338"/><path d="M1203.501-4092.049h30.35v30.35h-30.35z" overflow="visible" transform="scale(.73584 1.08173) rotate(45 -3175.21 1104.691)" style="marker:none" fill="none" stroke="#fff" stroke-width="2.242"/><path d="M164.972-3982.419h40.814v40.814h-40.814z" overflow="visible" style="marker:none" transform="scale(.93957 .80438) rotate(45 -4228.236 1586.515)" fill="none" stroke="#131f67" stroke-width="2.301"/><path d="M1202.448-4093.101h30.35v30.35h-30.35z" overflow="visible" style="marker:none" transform="scale(.73584 1.08173) rotate(45 -3175.21 1104.691)" fill="#fff" stroke="#131f67" stroke-width="2.242"/><path d="M163.557-3983.835h40.814v40.814h-40.814z" overflow="visible" transform="scale(.93957 .80438) rotate(45 -4228.236 1586.515)" style="marker:none" fill="#fff" stroke="#131f67" stroke-width="2.301"/><path transform="matrix(.80776 0 0 -1 -109.54 2778.714)" overflow="visible" style="marker:none" d="M3404.394 2211.823l1.41-1.75 1.411 1.75v108.365h-2.821zm10.766 0l1.41-1.75 1.41 1.75v108.365h-2.82z" opacity=".99" fill="#131f67" stroke="#131f67" stroke-width="2.225"/></g><g transform="translate(-343.966 6.172)"><path d="M2918.774 566.534l30.625-53.044" fill="none" stroke="#fff" stroke-width="4.9" marker-start="url(#v)" marker-end="url(#w)"/><circle overflow="visible" r="16.25" cy="540.097" cx="2934.037" style="marker:none" color="#000" fill="#fff"/><circle overflow="visible" style="marker:none" cx="2934.037" cy="540.097" r="10.635" color="#000" fill="#131f67"/><path d="M2929.384 541.344l3.406-5.9 5.9 3.407-3.406 5.9z" overflow="visible" style="marker:none" color="#000" fill="#fff"/></g></g></svg>