<svg xmlns="http://www.w3.org/2000/svg" xmlns:xlink="http://www.w3.org/1999/xlink" width="225" height="314" viewBox="0 0 210.93738 294.37536"><defs><pattern patternTransform="rotate(135.001 -485.042 -1121.136) scale(.15641)" id="d" xlink:href="#a"/><pattern patternTransform="rotate(135.001 28.264 -315.316) scale(.15641)" id="a" xlink:href="#b"/><pattern patternTransform="rotate(135.001 -209.574 -500.773) scale(.15641)" id="b" xlink:href="#c"/><pattern id="c" patternTransform="translate(-254.024 74.426)" height="110.741" width="108.618" patternUnits="userSpaceOnUse"><path fill="#131f67" d="M-1016.046 25.72l-10.764 16.121 7.177 18.006-18.658-5.255-14.907 12.39-.767-19.369-16.39-10.349 18.184-6.714 4.777-18.786 12.005 15.218z" transform="translate(1070.355 -11.764)"/><path fill="#131f67" transform="rotate(30 -588.091 2050.257)" d="M-1016.046 25.72l-10.764 16.121 7.177 18.006-18.658-5.255-14.907 12.39-.767-19.369-16.39-10.349 18.184-6.714 4.777-18.786 12.005 15.218z"/><path fill="#131f67" transform="translate(1124.664 -11.764)" d="M-1016.046 25.72l-10.764 16.121 7.177 18.006-18.658-5.255-14.907 12.39-.767-19.369-16.39-10.349 18.184-6.714 4.777-18.786 12.005 15.218z"/><path fill="#131f67" transform="rotate(30 -560.936 2151.6)" d="M-1016.046 25.72l-10.764 16.121 7.177 18.006-18.658-5.255-14.907 12.39-.767-19.369-16.39-10.349 18.184-6.714 4.777-18.786 12.005 15.218z"/></pattern></defs><path d="M0 0h210.938v294.375H0z" fill="#fff"/><g transform="matrix(.94494 0 0 .94408 245.32 -473.322)" stroke="#131f67" stroke-linecap="round"><rect width="197.052" height="286.644" x="-246.526" y="513.9" ry="0" fill="none" stroke-width="4.952"/><path d="M-242.139 517.769h188.277v278.906h-188.277z" fill="url(#d)"/></g></svg>