<svg xmlns="http://www.w3.org/2000/svg" xmlns:xlink="http://www.w3.org/1999/xlink" width="225" height="314" viewBox="0 0 210.93738 294.37536"><defs><pattern patternTransform="translate(2887.018 -1682.58) scale(6.75293)" id="g" xlink:href="#a"/><pattern patternTransform="translate(-726.784 566.619) scale(6.75293)" id="a" xlink:href="#b"/><pattern patternTransform="translate(-128.212 505.19) scale(6.75293)" id="b" xlink:href="#c"/><pattern patternTransform="translate(-35.355 473.762) scale(6.75293)" id="c" xlink:href="#d"/><pattern patternTransform="translate(-158.594 542.452) scale(6.75293)" id="d" xlink:href="#e"/><pattern patternUnits="userSpaceOnUse" width="10" height="10" patternTransform="scale(10)" id="e"><circle fill="#131f67" cx="2.567" cy=".81" r=".15"/><circle fill="#131f67" cx="3.048" cy="2.33" r=".15"/><circle fill="#131f67" cx="4.418" cy="2.415" r=".15"/><circle fill="#131f67" cx="1.844" cy="3.029" r=".15"/><circle fill="#131f67" cx="6.08" cy="1.363" r=".15"/><circle fill="#131f67" cx="5.819" cy="4.413" r=".15"/><circle fill="#131f67" cx="4.305" cy="4.048" r=".15"/><circle fill="#131f67" cx="5.541" cy="3.045" r=".15"/><circle fill="#131f67" cx="4.785" cy="5.527" r=".15"/><circle fill="#131f67" cx="2.667" cy="5.184" r=".15"/><circle fill="#131f67" cx="7.965" cy="1.448" r=".15"/><circle fill="#131f67" cx="7.047" cy="5.049" r=".15"/><circle fill="#131f67" cx="4.34" cy=".895" r=".15"/><circle fill="#131f67" cx="7.125" cy=".34" r=".15"/><circle fill="#131f67" cx="9.553" cy="1.049" r=".15"/><circle fill="#131f67" cx="7.006" cy="2.689" r=".15"/><circle fill="#131f67" cx="8.909" cy="2.689" r=".15"/><circle fill="#131f67" cx="9.315" cy="4.407" r=".15"/><circle fill="#131f67" cx="7.82" cy="3.87" r=".15"/><circle fill="#131f67" cx="8.27" cy="5.948" r=".15"/><circle fill="#131f67" cx="7.973" cy="7.428" r=".15"/><circle fill="#131f67" cx="9.342" cy="8.072" r=".15"/><circle fill="#131f67" cx="8.206" cy="9.315" r=".15"/><circle fill="#131f67" cx="9.682" cy="9.475" r=".15"/><circle fill="#131f67" cx="9.688" cy="6.186" r=".15"/><circle fill="#131f67" cx="3.379" cy="6.296" r=".15"/><circle fill="#131f67" cx="2.871" cy="8.204" r=".15"/><circle fill="#131f67" cx="4.59" cy="8.719" r=".15"/><circle fill="#131f67" cx="3.181" cy="9.671" r=".15"/><circle fill="#131f67" cx="5.734" cy="7.315" r=".15"/><circle fill="#131f67" cx="6.707" cy="6.513" r=".15"/><circle fill="#131f67" cx="5.73" cy="9.67" r=".15"/><circle fill="#131f67" cx="6.535" cy="8.373" r=".15"/><circle fill="#131f67" cx="4.37" cy="7.154" r=".15"/><circle fill="#131f67" cx=".622" cy="7.25" r=".15"/><circle fill="#131f67" cx=".831" cy="5.679" r=".15"/><circle fill="#131f67" cx="1.257" cy="8.519" r=".15"/><circle fill="#131f67" cx="1.989" cy="6.877" r=".15"/><circle fill="#131f67" cx=".374" cy="3.181" r=".15"/><circle fill="#131f67" cx="1.166" cy="1.664" r=".15"/><circle fill="#131f67" cx="1.151" cy=".093" r=".15"/><circle fill="#131f67" cx="1.151" cy="10.093" r=".15"/><circle fill="#131f67" cx="1.302" cy="4.451" r=".15"/><circle fill="#131f67" cx="3.047" cy="3.763" r=".15"/></pattern><pattern patternTransform="translate(3377.808 -1745.85) scale(5.74279)" id="h" xlink:href="#f"/><pattern patternUnits="userSpaceOnUse" width="10" height="10" patternTransform="scale(10)" id="f"><circle fill="#fff" cx="2.567" cy=".81" r=".15"/><circle fill="#fff" cx="3.048" cy="2.33" r=".15"/><circle fill="#fff" cx="4.418" cy="2.415" r=".15"/><circle fill="#fff" cx="1.844" cy="3.029" r=".15"/><circle fill="#fff" cx="6.08" cy="1.363" r=".15"/><circle fill="#fff" cx="5.819" cy="4.413" r=".15"/><circle fill="#fff" cx="4.305" cy="4.048" r=".15"/><circle fill="#fff" cx="5.541" cy="3.045" r=".15"/><circle fill="#fff" cx="4.785" cy="5.527" r=".15"/><circle fill="#fff" cx="2.667" cy="5.184" r=".15"/><circle fill="#fff" cx="7.965" cy="1.448" r=".15"/><circle fill="#fff" cx="7.047" cy="5.049" r=".15"/><circle fill="#fff" cx="4.34" cy=".895" r=".15"/><circle fill="#fff" cx="7.125" cy=".34" r=".15"/><circle fill="#fff" cx="9.553" cy="1.049" r=".15"/><circle fill="#fff" cx="7.006" cy="2.689" r=".15"/><circle fill="#fff" cx="8.909" cy="2.689" r=".15"/><circle fill="#fff" cx="9.315" cy="4.407" r=".15"/><circle fill="#fff" cx="7.82" cy="3.87" r=".15"/><circle fill="#fff" cx="8.27" cy="5.948" r=".15"/><circle fill="#fff" cx="7.973" cy="7.428" r=".15"/><circle fill="#fff" cx="9.342" cy="8.072" r=".15"/><circle fill="#fff" cx="8.206" cy="9.315" r=".15"/><circle fill="#fff" cx="9.682" cy="9.475" r=".15"/><circle fill="#fff" cx="9.688" cy="6.186" r=".15"/><circle fill="#fff" cx="3.379" cy="6.296" r=".15"/><circle fill="#fff" cx="2.871" cy="8.204" r=".15"/><circle fill="#fff" cx="4.59" cy="8.719" r=".15"/><circle fill="#fff" cx="3.181" cy="9.671" r=".15"/><circle fill="#fff" cx="5.734" cy="7.315" r=".15"/><circle fill="#fff" cx="6.707" cy="6.513" r=".15"/><circle fill="#fff" cx="5.73" cy="9.67" r=".15"/><circle fill="#fff" cx="6.535" cy="8.373" r=".15"/><circle fill="#fff" cx="4.37" cy="7.154" r=".15"/><circle fill="#fff" cx=".622" cy="7.25" r=".15"/><circle fill="#fff" cx=".831" cy="5.679" r=".15"/><circle fill="#fff" cx="1.257" cy="8.519" r=".15"/><circle fill="#fff" cx="1.989" cy="6.877" r=".15"/><circle fill="#fff" cx=".374" cy="3.181" r=".15"/><circle fill="#fff" cx="1.166" cy="1.664" r=".15"/><circle fill="#fff" cx="1.151" cy=".093" r=".15"/><circle fill="#fff" cx="1.151" cy="10.093" r=".15"/><circle fill="#fff" cx="1.302" cy="4.451" r=".15"/><circle fill="#fff" cx="3.047" cy="3.763" r=".15"/></pattern></defs><path d="M0 0h210.938v294.375H0z" fill="#fff"/><g transform="matrix(.94494 0 0 .94408 -2234.164 902.063)" stroke-linecap="round"><rect width="197.052" height="286.644" x="2377.425" y="-942.907" ry="0" fill="none" stroke="#131f67" stroke-width="4.952"/><path d="M2381.813-939.038h188.277v278.906h-188.277z" fill="url(#g)" stroke="#131f67"/><rect ry="0" y="-942.907" x="2377.425" height="286.644" width="197.052" fill="#131f67" stroke="#131f67" stroke-width="4.952"/><path d="M2381.813-939.038h188.277v278.906h-188.277z" fill="url(#h)" stroke="#fff" stroke-width="2"/></g></svg>