<svg xmlns="http://www.w3.org/2000/svg" xmlns:xlink="http://www.w3.org/1999/xlink" width="225" height="314" viewBox="0 0 210.93738 294.37536"><defs><pattern patternTransform="matrix(.65828 -.74497 1.16185 1.02666 -762.141 199.176)" id="b" xlink:href="#a"/><pattern patternUnits="userSpaceOnUse" width="30.066" height="5.181" id="a"><path fill="#131f67" d="M7.597.061C5.079-.187 2.656.302-.01 1.788v1.273c2.783-1.63 5.183-2.009 7.482-1.781 2.298.228 4.497 1.081 6.781 1.938 4.567 1.713 9.551 3.458 15.813-.157l-.004-1.273c-6.44 3.709-10.816 1.982-15.371.273-2.278-.854-4.576-1.75-7.094-2z"/></pattern></defs><path d="M0 0h210.938v294.375H0z" fill="#fff"/><g transform="matrix(.94494 0 0 .94408 520.609 -462.602)" stroke="#131f67" stroke-linecap="round" stroke-opacity=".992"><rect width="197.052" height="286.644" x="-537.854" y="502.586" ry="0" fill="#fff" stroke-width="4.952"/><path d="M-533.467 506.455h188.277v278.906h-188.277z" fill="url(#b)"/></g></svg>